<svg width="24" height="24" viewBox="0 0 24 24" fill="none" xmlns="http://www.w3.org/2000/svg">
	<path
		d="M7.33333 14.2735C8.04426 13.5655 8.52991 12 8.52991 12C8.52991 12 8.97195 13.5645 9.66667 14.2735C10.3834 15.005 12 15.4701 12 15.4701C12 15.4701 10.3821 15.9339 9.66667 16.6667C8.95856 17.3919 8.52991 19 8.52991 19C8.52991 19 8.05745 17.3908 7.33333 16.6667C6.60922 15.9425 5 15.4701 5 15.4701C5 15.4701 6.60771 14.9961 7.33333 14.2735Z"
		fill="currentColor" />
	<path
		d="M15.3333 17.2991C15.7396 16.8946 16.0171 16 16.0171 16C16.0171 16 16.2697 16.894 16.6667 17.2991C17.0762 17.7171 18 17.9829 18 17.9829C18 17.9829 17.0755 18.248 16.6667 18.6667C16.262 19.0811 16.0171 20 16.0171 20C16.0171 20 15.7471 19.0804 15.3333 18.6667C14.9196 18.2529 14 17.9829 14 17.9829C14 17.9829 14.9187 17.7121 15.3333 17.2991Z"
		fill="currentColor" />
	<path
		d="M11.3333 6.24786C12.3489 5.23646 13.0427 3 13.0427 3C13.0427 3 13.6742 5.23495 14.6667 6.24786C15.6905 7.29282 18 7.95726 18 7.95726C18 7.95726 15.6887 8.61991 14.6667 9.66667C13.6551 10.7027 13.0427 13 13.0427 13C13.0427 13 12.3678 10.7011 11.3333 9.66667C10.2989 8.63221 8 7.95726 8 7.95726C8 7.95726 10.2967 7.28016 11.3333 6.24786Z"
		fill="currentColor" />
</svg>