<svg width="24" height="24" viewBox="0 0 24 24" fill="none" xmlns="http://www.w3.org/2000/svg">
	<path
		d="M11.8761 21L15.5874 10.8H17.2886L21 21H19.2988L18.4397 18.404H14.4805L13.5942 21H11.8761ZM14.9762 16.9165H17.8998L16.4737 12.7125H16.4024L14.9762 16.9165ZM5.44481 18.45L4.29372 17.2494L8.41256 12.9533C7.89869 12.3619 7.44906 11.7474 7.06366 11.1099C6.67827 10.4724 6.34239 9.80244 6.05604 9.10001H7.75722C8.00509 9.61119 8.26712 10.0701 8.54329 10.4768C8.81946 10.8835 9.15393 11.3147 9.54668 11.7704C10.1488 11.0869 10.6477 10.3886 11.0433 9.67551C11.4389 8.96246 11.7697 8.20396 12.0357 7.40001H3V5.7H8.70459V4H10.3345V5.7H16.0391V7.40001H13.6655C13.3792 8.40111 12.9924 9.37596 12.5051 10.3245C12.0178 11.2731 11.4154 12.1647 10.6978 12.9994L12.6469 15.0783L12.0357 16.8244L9.51953 14.2L5.44481 18.45Z" />
</svg>