<svg width="20" height="20" viewBox="0 0 66 66" fill="none" xmlns="http://www.w3.org/2000/svg">
	<path
		d="M24.6667 24.3162C28.8307 20.1695 31.6752 11 31.6752 11C31.6752 11 34.2643 20.1633 38.3333 24.3162C42.5311 28.6006 52 31.3248 52 31.3248C52 31.3248 42.5235 34.0416 38.3333 38.3333C34.1859 42.5812 31.6752 52 31.6752 52C31.6752 52 28.9079 42.5746 24.6667 38.3333C20.4254 34.0921 11 31.3248 11 31.3248C11 31.3248 20.4166 28.5487 24.6667 24.3162Z"
		fill="currentColor" />
	<path
		d="M48.6667 51.5214C50.3932 49.802 51.5726 46 51.5726 46C51.5726 46 52.6462 49.7994 54.3333 51.5214C56.0739 53.2978 60 54.4274 60 54.4274C60 54.4274 56.0707 55.5538 54.3333 57.3333C52.6137 59.0947 51.5726 63 51.5726 63C51.5726 63 50.4252 59.0919 48.6667 57.3333C46.9081 55.5748 43 54.4274 43 54.4274C43 54.4274 46.9044 53.2763 48.6667 51.5214Z"
		fill="currentColor" />
	<path
		d="M6.66667 45.5726C7.78384 44.4601 8.54701 42 8.54701 42C8.54701 42 9.24164 44.4584 10.3333 45.5726C11.4596 46.7221 14 47.453 14 47.453C14 47.453 11.4575 48.1819 10.3333 49.3333C9.2206 50.473 8.54701 53 8.54701 53C8.54701 53 7.80457 50.4712 6.66667 49.3333C5.52877 48.1954 3 47.453 3 47.453C3 47.453 5.5264 46.7082 6.66667 45.5726Z"
		fill="currentColor" />
	<path
		d="M50.3333 6.22222C51.6536 4.9074 52.5556 2 52.5556 2C52.5556 2 53.3765 4.90543 54.6667 6.22222C55.9977 7.58066 59 8.44444 59 8.44444C59 8.44444 55.9953 9.30588 54.6667 10.6667C53.3516 12.0136 52.5556 15 52.5556 15C52.5556 15 51.6781 12.0115 50.3333 10.6667C48.9885 9.32188 46 8.44444 46 8.44444C46 8.44444 48.9858 7.56421 50.3333 6.22222Z"
		fill="currentColor" />
</svg>